<?xml version="1.0" encoding="UTF-8"?>
<svg id="Layer_2" data-name="Layer 2" xmlns="http://www.w3.org/2000/svg" viewBox="0 0 300.48 58">
  <defs>
    <style>
      .cls-1 {
        fill: #1f2937;
        stroke-width: 0px;
      }
    </style>
  </defs>
  <g id="Layer_1-2" data-name="Layer 1">
    <g>
      <path class="cls-1" d="M19.84,48.64c-6.4,0-9.84-5.04-9.84-19.92,0-13.92,3.2-19.36,9.84-19.36,5.36,0,7.92,3.68,8.96,8.88l9.28-2.56C36.56,6.56,31.44,0,20.16,0,7.92,0,0,7.6,0,28.88s7.92,29.12,19.84,29.12,16.4-7.2,18.48-16.32l-9.36-2.48c-1.28,5.92-3.92,9.44-9.12,9.44Z"/>
      <rect class="cls-1" x="44.08" y="12.24" width="9.2" height="44.8"/>
      <path class="cls-1" d="M83.68,30.48c0,4.64.08,9.2.08,9.28h-.24l-13.36-27.52h-9.6v44.8h8.64v-18.56c0-4.64-.08-9.68-.08-9.76h.24l13.36,28.32h9.6V12.24h-8.64v18.24Z"/>
      <polygon class="cls-1" points="108.8 38.56 120.8 38.56 120.8 29.92 108.8 29.92 108.8 21.04 125.2 21.04 125.2 12.24 99.68 12.24 99.68 57.04 125.52 57.04 125.52 48.24 108.8 48.24 108.8 38.56"/>
      <path class="cls-1" d="M146.72,9.2c4.4,0,6.48,2.16,7.28,7.6l9.44-2.56c-1.28-10.8-8.56-14.24-16.96-14.24-10.8,0-15.84,5.84-15.84,14.72,0,10.96,7.2,14.72,13.12,17.92,5.36,2.96,9.68,4.48,9.68,10,0,4.24-2.4,6.24-6.48,6.24-5.12,0-7.36-3.12-7.84-8.24l-9.44,2.56c1.12,10.8,8.32,14.8,17.44,14.8,10.48,0,16.32-5.28,16.32-15.68s-6.4-14.4-12.96-17.68c-6.24-3.2-9.84-4.88-9.84-9.84,0-3.92,2.16-5.6,6.08-5.6Z"/>
      <polygon class="cls-1" points="196.64 12.24 166.96 12.24 166.96 21.04 177.2 21.04 177.2 57.04 186.4 57.04 186.4 21.04 196.64 21.04 196.64 12.24"/>
      <path class="cls-1" d="M205.28,12.24l-10.32,44.8h8.96l1.76-8.88h11.92l1.76,8.88h9.28l-10.32-44.8h-13.04ZM207.28,40.24l1.68-8.56c1.52-7.52,2.4-12.16,2.48-12.4h.32c0,.24.88,4.8,2.4,12.24l1.84,8.72h-8.72Z"/>
      <path class="cls-1" d="M247.6,20.08c4.96,0,6.16,4.24,6.8,7.28l8.32-2.16c-1.6-10.16-7.12-13.76-15.28-13.76-10.48,0-16.88,6.32-16.88,23.04s6.64,23.52,16.88,23.52c9.36,0,13.28-5.2,15.28-12.88l-8.4-2.32c-1.12,3.92-2.8,6.56-6.8,6.56-4.96,0-7.44-3.84-7.44-15.12,0-9.84,2.24-14.16,7.52-14.16Z"/>
      <path class="cls-1" d="M288.8,30l11.6-17.76h-10.16l-8.96,14.32c-1.52,2.4-3.12,5.52-3.6,6.24h-.24l.08-9.52v-11.04h-9.2v44.8h9.2v-11.6l4.8-7.44,8.08,19.04h10.08l-11.68-27.04Z"/>
    </g>
  </g>
</svg>