<?xml version="1.0" encoding="UTF-8"?>
<svg id="Layer_2" data-name="Layer 2" xmlns="http://www.w3.org/2000/svg" viewBox="0 0 420.81 58">
  <defs>
    <style>
      .cls-1 {
        fill: #6b429a;
      }

      .cls-1, .cls-2 {
        stroke-width: 0px;
      }

      .cls-2 {
        fill: #fff;
      }
    </style>
  </defs>
  <g id="Layer_1-2" data-name="Layer 1">
    <path class="cls-1" d="M111.82,8.04l-7.4,10.36c-1.06,1.48-3.11,1.82-4.59.77l-4.82-3.44c-1.48-1.06-1.82-3.11-.77-4.59l2.21-3.1h-41.67l-1.7,2.39c-1.06,1.48-3.11,1.82-4.59.77l-4.41-3.15h-9.1L0,57.04h4.44l6.67-9.34c1.06-1.48,3.11-1.82,4.59-.77l4.82,3.44c1.48,1.06,1.82,3.11.77,4.59l-1.48,2.08h41.67l.55-.77c1.06-1.48,3.11-1.82,4.59-.77l2.15,1.54h4.17s-.08-.03-.12-.05l-4.81-3.43c-1.48-1.06-1.82-3.11-.77-4.59l8.16-11.42c1.06-1.48,3.11-1.82,4.59-.77l4.82,3.44c1.48,1.06,1.82,3.11.77,4.59l-8.15,11.41c-.24.34-.55.61-.88.82h4.54L116.06,8.06v-.02h-4.24ZM34.54,36.69l-8.09,11.33c-1.06,1.48-3.11,1.82-4.59.77l-4.77-3.4c-1.48-1.06-1.82-3.11-.77-4.59l8.09-11.33c1.06-1.48,3.11-1.82,4.59-.77l4.77,3.4c1.48,1.06,1.82,3.11.77,4.59ZM47.84,18.07l-8.09,11.33c-1.06,1.48-3.11,1.82-4.59.77l-4.77-3.4c-1.48-1.06-1.82-3.11-.77-4.59l8.09-11.33c1.06-1.48,3.11-1.82,4.59-.77l4.77,3.4c1.48,1.06,1.82,3.11.77,4.59ZM98.78,26.16l-8.09,11.33c-1.06,1.48-3.11,1.82-4.59.77l-4.77-3.4c-1.48-1.06-1.82-3.11-.77-4.59l8.09-11.33c1.06-1.48,3.11-1.82,4.59-.77l4.77,3.4c1.48,1.06,1.82,3.11.77,4.59Z"/>
    <g>
      <path class="cls-2" d="M140.17,48.64c-6.4,0-9.84-5.04-9.84-19.92,0-13.92,3.2-19.36,9.84-19.36,5.36,0,7.92,3.68,8.96,8.88l9.28-2.56c-1.52-9.12-6.64-15.68-17.92-15.68-12.24,0-20.16,7.6-20.16,28.88s7.92,29.12,19.84,29.12,16.4-7.2,18.48-16.32l-9.36-2.48c-1.28,5.92-3.92,9.44-9.12,9.44Z"/>
      <rect class="cls-2" x="164.41" y="12.24" width="9.2" height="44.8"/>
      <path class="cls-2" d="M204.01,30.48c0,4.64.08,9.2.08,9.28h-.24l-13.36-27.52h-9.6v44.8h8.64v-18.56c0-4.64-.08-9.68-.08-9.76h.24l13.36,28.32h9.6V12.24h-8.64v18.24Z"/>
      <polygon class="cls-2" points="229.13 38.56 241.13 38.56 241.13 29.92 229.13 29.92 229.13 21.04 245.53 21.04 245.53 12.24 220.01 12.24 220.01 57.04 245.85 57.04 245.85 48.24 229.13 48.24 229.13 38.56"/>
      <path class="cls-2" d="M267.05,9.2c4.4,0,6.48,2.16,7.28,7.6l9.44-2.56c-1.28-10.8-8.56-14.24-16.96-14.24-10.8,0-15.84,5.84-15.84,14.72,0,10.96,7.2,14.72,13.12,17.92,5.36,2.96,9.68,4.48,9.68,10,0,4.24-2.4,6.24-6.48,6.24-5.12,0-7.36-3.12-7.84-8.24l-9.44,2.56c1.12,10.8,8.32,14.8,17.44,14.8,10.48,0,16.32-5.28,16.32-15.68s-6.4-14.4-12.96-17.68c-6.24-3.2-9.84-4.88-9.84-9.84,0-3.92,2.16-5.6,6.08-5.6Z"/>
      <polygon class="cls-2" points="316.97 12.24 287.29 12.24 287.29 21.04 297.53 21.04 297.53 57.04 306.73 57.04 306.73 21.04 316.97 21.04 316.97 12.24"/>
      <path class="cls-2" d="M325.61,12.24l-10.32,44.8h8.96l1.76-8.88h11.92l1.76,8.88h9.28l-10.32-44.8h-13.04ZM327.61,40.24l1.68-8.56c1.52-7.52,2.4-12.16,2.48-12.4h.32c0,.24.88,4.8,2.4,12.24l1.84,8.72h-8.72Z"/>
      <path class="cls-2" d="M367.93,20.08c4.96,0,6.16,4.24,6.8,7.28l8.32-2.16c-1.6-10.16-7.12-13.76-15.28-13.76-10.48,0-16.88,6.32-16.88,23.04s6.64,23.52,16.88,23.52c9.36,0,13.28-5.2,15.28-12.88l-8.4-2.32c-1.12,3.92-2.8,6.56-6.8,6.56-4.96,0-7.44-3.84-7.44-15.12,0-9.84,2.24-14.16,7.52-14.16Z"/>
      <path class="cls-2" d="M409.13,30l11.6-17.76h-10.16l-8.96,14.32c-1.52,2.4-3.12,5.52-3.6,6.24h-.24l.08-9.52v-11.04h-9.2v44.8h9.2v-11.6l4.8-7.44,8.08,19.04h10.08l-11.68-27.04Z"/>
    </g>
  </g>
</svg>